<svg xmlns="http://www.w3.org/2000/svg" viewBox="0 0 107.62 107.62"><defs><style>.cls-1{fill:#654ff0}</style></defs><g id="Layer_2" data-name="Layer 2"><g id="Notch_-_Purple" data-name="Notch - Purple"><g id="icon"><path class="cls-1" d="M66.12 0v.58a12.34 12.34 0 11-24.68 0V0H0v107.62h107.62V0zM51.38 96.1l-5.24-25.93H46L40.39 96.1h-7.21L25 58h7.13L37 83.93h.09L42.94 58h6.67l5.29 26.25h.1L60.55 58h7l-9.09 38.1zm39.26 0l-2.43-8.48H75.4l-1.87 8.48h-7.17L75.59 58h11.24L98 96.1z"/><path class="cls-1" d="M79.87 67.39l-3.11 13.98h9.68l-3.57-13.98h-3z"/></g></g></g></svg>